<svg width="300" height="300" viewBox="0 0 300 300" fill="none" xmlns="http://www.w3.org/2000/svg">
<g opacity="0.405" filter="url(#filter0_f_67_74)">
<path d="M262.454 149.835C262.454 212.579 212.104 263.443 149.995 263.443C87.8847 263.443 37.5347 212.579 37.5347 149.835C37.5347 87.0902 87.8847 36.2258 149.995 36.2258C212.104 36.2258 262.454 87.0902 262.454 149.835Z" fill="#211F46" fill-opacity="0.996078"/>
<path d="M262.454 149.835C262.454 212.579 212.104 263.443 149.995 263.443C87.8847 263.443 37.5347 212.579 37.5347 149.835C37.5347 87.0902 87.8847 36.2258 149.995 36.2258C212.104 36.2258 262.454 87.0902 262.454 149.835Z" stroke="#0A0B1B" stroke-width="0.78948"/>
</g>
<path d="M262.454 149.835C262.454 212.579 212.104 263.443 149.995 263.443C87.8847 263.443 37.5347 212.579 37.5347 149.835C37.5347 87.0902 87.8847 36.2258 149.995 36.2258C212.104 36.2258 262.454 87.0902 262.454 149.835Z" fill="white" stroke="url(#paint0_linear_67_74)" stroke-width="1.25045"/>
<path fill-rule="evenodd" clip-rule="evenodd" d="M111.342 229.635C111.342 229.635 120.864 230.309 133.114 229.229C138.075 228.792 156.91 226.942 170.992 223.853C170.992 223.853 188.161 220.179 197.347 216.794C206.958 213.252 212.188 210.246 214.542 205.986C214.439 205.114 215.267 202.019 210.835 200.16C199.503 195.407 186.361 196.267 160.357 195.715C131.519 194.724 121.926 189.897 116.816 186.01C111.915 182.066 114.379 171.155 135.376 161.544C145.953 156.426 187.416 146.981 187.416 146.981C173.452 140.079 147.414 127.945 142.061 125.325C137.367 123.027 129.855 119.567 128.226 115.38C126.38 111.361 132.587 107.899 136.053 106.908C147.219 103.687 162.981 101.686 177.327 101.461C184.538 101.348 185.708 100.884 185.708 100.884C195.658 99.2334 202.208 92.4262 199.479 81.6455C197.029 70.6412 184.108 64.1752 171.829 66.4137C160.267 68.5217 132.397 76.6169 132.397 76.6169C166.846 76.3188 172.612 76.8937 175.187 80.494C176.707 82.6203 174.496 85.5357 165.308 87.0362C155.306 88.6697 134.515 90.637 134.515 90.637C114.569 91.8215 100.519 91.9008 96.3056 100.822C93.5526 106.651 99.2413 111.804 101.735 115.029C112.271 126.747 127.49 133.067 137.287 137.72C140.973 139.471 151.788 142.778 151.788 142.778C120.006 141.03 97.0808 150.789 83.6327 162.025C68.4225 176.094 75.1511 192.863 106.313 203.188C124.718 209.287 133.846 212.155 161.3 209.683C177.47 208.811 180.02 209.33 180.181 210.657C180.408 212.525 162.22 217.166 157.254 218.598C144.622 222.242 111.507 229.599 111.342 229.635Z" fill="black"/>
<defs>
<filter id="filter0_f_67_74" x="35.5146" y="34.2056" width="228.96" height="231.258" filterUnits="userSpaceOnUse" color-interpolation-filters="sRGB">
<feFlood flood-opacity="0" result="BackgroundImageFix"/>
<feBlend mode="normal" in="SourceGraphic" in2="BackgroundImageFix" result="shape"/>
<feGaussianBlur stdDeviation="0.812749" result="effect1_foregroundBlur_67_74"/>
</filter>
<linearGradient id="paint0_linear_67_74" x1="241.574" y1="215.937" x2="111.193" y2="58.551" gradientUnits="userSpaceOnUse">
<stop stop-color="#411F5D"/>
<stop offset="1" stop-color="#5B2A85"/>
</linearGradient>
</defs>
</svg>
