<svg width="300" height="300" viewBox="0 0 300 300" fill="none" xmlns="http://www.w3.org/2000/svg">
<g clip-path="url(#clip0_67_54)">
<path d="M50 50H250V250H50V50Z" fill="white"/>
<path d="M71.7666 212.5H146.767V225H71.7666V212.5Z" fill="black"/>
<path d="M68.6333 101.667L74.2 96.4C74.7297 97.236 75.4499 97.9346 76.3016 98.4386C77.1533 98.9427 78.1122 99.2379 79.1 99.3C81.2333 99.3 82.6333 97.8333 82.6333 94.9333V75H91.2333V95C91.362 96.5657 91.1713 98.1412 90.6728 99.631C90.1743 101.121 89.3783 102.494 88.3333 103.667C87.1853 104.734 85.8372 105.564 84.3668 106.107C82.8964 106.651 81.3329 106.898 79.7666 106.833C77.6266 106.974 75.4856 106.574 73.5403 105.671C71.595 104.769 69.9076 103.392 68.6333 101.667Z" fill="black"/>
<path d="M95 75H120.1V82.3H103.433V87.1H118.4V93.7667H103.667V98.7333H120.333V106.1H95V75Z" fill="black"/>
<path d="M132.433 82.6333H123.1V75H150.467V82.5667H141.1V106.233H132.433V82.6333Z" fill="black"/>
<path d="M72.1001 118.6H86.8334C89.9204 118.368 92.9743 119.362 95.3334 121.367C95.9941 122.037 96.512 122.835 96.8558 123.712C97.1995 124.588 97.362 125.526 97.3334 126.467C97.3709 127.986 96.9268 129.478 96.0646 130.729C95.2024 131.981 93.9663 132.927 92.5334 133.433C94.3068 133.758 95.9059 134.706 97.0426 136.105C98.1792 137.505 98.7789 139.264 98.7334 141.067C98.7334 146.433 94.3668 149.7 86.9001 149.7H72.1001V118.6ZM88.7668 128.233C88.7668 126.5 87.3668 125.567 84.8334 125.567H80.5334V131.033H84.6668C87.3001 131.033 88.8334 130.167 88.8334 128.333L88.7668 128.233ZM85.7668 137.1H80.5334V142.867H85.9334C88.6001 142.867 90.0668 141.833 90.0668 140C90.0668 138.333 88.7334 137.1 85.8334 137.1H85.7668Z" fill="black"/>
<path d="M101.667 118.6H115.333C118.974 118.362 122.563 119.559 125.333 121.933C126.314 122.874 127.087 124.01 127.603 125.267C128.12 126.524 128.369 127.875 128.333 129.233C128.393 131.308 127.806 133.35 126.653 135.076C125.501 136.803 123.839 138.127 121.9 138.867L129.367 149.767H119.367L113.1 140.3H110.2V149.767H101.667V118.6ZM115 133.6C117.9 133.6 119.633 132.167 119.633 129.9C119.633 127.4 117.833 126.167 114.967 126.167H110.167V133.7L115 133.6Z" fill="black"/>
<path d="M140.3 118.333H148.633L161.966 149.8H152.666L150.433 144.167H138.333L136.1 149.8H127.066L140.3 118.333ZM147.866 137.433L144.533 128.6L141 137.433H147.866Z" fill="black"/>
<path d="M163.2 118.5H171.867V149.733H163.2V118.5Z" fill="black"/>
<path d="M175.2 118.5H183.267L194.5 135.167V118.5H203.067V149.733H195.534L183.767 132.6V149.733H175.2V118.5Z" fill="black"/>
<path d="M204.533 145L209.367 139.233C212.175 141.588 215.702 142.917 219.367 143C221.733 143 222.967 142.2 222.967 140.833C222.967 139.5 221.933 138.833 217.667 137.8C211 136.267 205.9 134.467 205.9 128.033C205.9 122.233 210.467 118.033 217.967 118.033C222.614 117.855 227.173 119.331 230.833 122.2L226.633 128.333C224.104 126.442 221.056 125.371 217.9 125.267C215.8 125.267 214.767 126.1 214.767 127.267C214.767 128.667 215.833 129.3 220.2 130.3C227.333 131.833 231.667 134.167 231.667 140C231.667 146.367 226.633 150 219.033 150C213.756 150.133 208.607 148.357 204.533 145Z" fill="black"/>
</g>
<defs>
<clipPath id="clip0_67_54">
<rect width="300" height="300" fill="white"/>
</clipPath>
</defs>
</svg>
