<svg width="300" height="300" viewBox="0 0 300 300" fill="none" xmlns="http://www.w3.org/2000/svg">
<g clip-path="url(#clip0_67_76)">
<path d="M247.775 256H52.2262C47.7194 256 44.019 252.298 44.019 247.79V52.2104C44.019 47.7018 47.7194 44 52.2262 44H247.775C252.281 44 255.982 47.7018 255.982 52.2104V247.837C255.934 252.346 252.281 256 247.775 256Z" fill="white"/>
<path d="M97.1494 106.704L203.797 72.8077C203.797 72.8077 211.672 68.6787 209.775 76.3197L210.059 110.253C210.059 110.253 211.435 115.236 204.604 116.47L163.803 129.247L97.1494 106.704Z" fill="black"/>
<path d="M92.8819 108.022C92.8819 108.022 88.5174 109.066 89.7983 116.518L89.5611 149.217C89.5611 149.217 89.1816 153.346 97.0092 155.007L206.928 190.411C206.928 190.411 210.628 191.883 210.201 187.327L210.249 150.878C210.249 150.878 211.293 147.129 204.461 144.661L159.535 130.565L92.8819 108.022Z" fill="black"/>
<path d="M136.365 171.096L94.5424 183.53C94.5424 183.53 88.897 183.72 89.5612 194.303C90.2253 204.887 89.5137 226.196 89.5137 226.196C89.5137 226.196 89.9881 230.135 95.3963 227.857L201.358 194.303C201.358 194.303 205.295 193.306 201.974 192.215C198.654 191.171 136.365 171.096 136.365 171.096Z" fill="black"/>
</g>
<defs>
<clipPath id="clip0_67_76">
<rect width="212" height="212" fill="white" transform="translate(44 44)"/>
</clipPath>
</defs>
</svg>
