<svg width="300" height="300" viewBox="0 0 300 300" fill="none" xmlns="http://www.w3.org/2000/svg">
<path d="M262 156.86H261.748L221.462 116.572L261.601 75.3749V58.6369L255.546 52.5815H179.019L172.859 58.2308V68.0034L150.144 45.252V45L149.996 45.147L149.849 45V45.252L137.816 57.2858L132.783 52.2525H56.9846L51.0414 58.7419V76.313L56.7676 82.0743H63.5158V131.623L38.252 156.888H38L38.147 157L38 157.147H38.252L63.5158 182.377V242.755L71.9721 247.642H93.6307L110.984 229.847L149.849 268.748V269L149.996 268.853L150.144 269V268.748L173.552 245.339H178.074C179.131 245.339 180.041 244.68 180.405 243.658L181.791 239.682C182.044 238.877 181.904 238.079 181.427 237.421L195.064 223.784L189.373 242.09C188.974 243.441 189.702 244.785 191.011 245.192C191.263 245.304 191.487 245.339 191.739 245.339H208.763C209.75 245.304 210.625 244.715 211.024 243.805L212.557 240.123C212.809 239.5 212.809 238.849 212.522 238.226C212.305 237.603 211.794 237.134 211.171 236.91C210.919 236.798 210.59 236.728 210.261 236.693H209.568L217.409 212.044H228.896L219.418 242.09C219.019 243.406 219.782 244.785 221.056 245.192C221.308 245.262 221.567 245.304 221.819 245.304H240.488C241.51 245.304 242.42 244.68 242.819 243.735L244.352 239.724C244.828 238.45 244.135 237.029 242.854 236.553C242.602 236.441 242.308 236.406 242.014 236.406H240.663L251.199 202.097C251.451 201.334 251.311 200.494 250.835 199.871L247.335 195.166V195.131C246.859 194.508 246.131 194.144 245.367 194.144H231.948C231.29 194.144 230.632 194.438 230.198 194.907L226.446 199.031H220.65L220.251 198.59L261.741 157.098H261.993L261.846 156.986L262 156.86ZM129.836 242.328L144.564 200.214H139.86L142.667 197.372H158.124L143.542 239.92H149.373L148.61 242.328H129.836ZM164.291 172.135L165.712 173.556L163.199 182.16L161.085 184.274H152.041L150.361 182.594L153.28 174.466L155.94 172.135H164.291ZM90.1656 239.409H74.1981L71.7201 238.023V73.8418H60.1977L59.2527 72.9317V61.9551L60.6037 60.499H129.402L131.404 62.5011V72.8547L130.053 74.4578H119.987V155.544L202.204 74.4578H182.737L181.098 72.7077V61.8431L182.226 60.821H252.116L253.355 62.0601V72.0497L159.146 168.67H155.646C155.499 168.67 155.394 168.67 155.247 168.67L155.065 168.705C154.666 168.817 154.26 168.999 153.973 169.251L150.767 172.023L150.732 172.058C150.438 172.352 150.186 172.681 150.039 173.08L147.301 180.843L90.1656 239.409ZM228.021 202.545L232.431 197.694H244.863L247.783 201.558L235.966 239.878H240.558L239.795 241.845H223.17L233.67 208.558H214.854L204.787 240.207H208.763L208.07 241.845H193.083L203.436 208.74H183.857L173.937 239.913H178.018L177.325 241.845H161.827L175.974 200.207H170.507L171.347 197.694H186.734L191.585 202.692H200.041L204.633 197.554H214.511L219.103 202.552L228.021 202.545Z" fill="white"/>
</svg>
