<svg width="300" height="300" viewBox="0 0 300 300" fill="none" xmlns="http://www.w3.org/2000/svg">
<path d="M201.369 96.3112L139.063 145.36L111.225 123.487L201.369 46.268V96.3112Z" fill="white"/>
<path d="M105.922 172.867L66.7963 204.332C62.1833 208.042 55.4617 207.436 51.5868 202.961L42.3603 192.305C38.3218 187.64 38.9084 180.567 43.6603 176.632L77.4207 148.674L105.922 172.867Z" fill="white"/>
<path d="M52.6817 93.7239L45.0536 100.815C40.2311 105.298 40.4006 112.984 45.4159 117.25L202.363 250.749V198.055L66.909 93.0858C62.6503 89.7855 56.6279 90.0556 52.6817 93.7239Z" fill="white"/>
<path d="M206.009 52.3543V246.295C206.009 254.685 215.024 259.986 222.355 255.908L259.347 235.334C262.836 233.394 265 229.714 265 225.721V69.8109C265 65.5543 262.544 61.6796 258.695 59.863L221.703 42.4064C214.407 38.963 206.009 44.286 206.009 52.3543Z" fill="white"/>
</svg>
